<svg xmlns="http://www.w3.org/2000/svg" xmlns:xlink="http://www.w3.org/1999/xlink" preserveAspectRatio="xMidYMid" width="37.66" height="29.72" viewBox="0 0 37.66 29.72">
  <defs>
    <style>
      .cls-1 {
        fill: #80407a;
        fill-rule: evenodd;
      }
    </style>
  </defs>
  <path d="M34.137,8.324 L3.523,8.324 C1.575,8.324 -0.009,6.724 -0.009,4.757 L-0.009,3.568 C-0.009,1.600 1.575,-0.000 3.523,-0.000 L34.137,-0.000 C36.084,-0.000 37.669,1.600 37.669,3.568 L37.669,4.757 C37.669,6.724 36.084,8.324 34.137,8.324 ZM35.314,3.568 C35.314,2.912 34.786,2.378 34.137,2.378 L3.523,2.378 C2.874,2.378 2.346,2.912 2.346,3.568 L2.346,4.757 C2.346,5.412 2.874,5.946 3.523,5.946 L34.137,5.946 C34.786,5.946 35.314,5.412 35.314,4.757 L35.314,3.568 ZM3.523,10.703 L21.185,10.703 C23.133,10.703 24.717,12.303 24.717,14.270 L24.717,15.459 C24.717,17.427 23.133,19.027 21.185,19.027 L3.523,19.027 C1.575,19.027 -0.009,17.427 -0.009,15.459 L-0.009,14.270 C-0.009,12.303 1.575,10.703 3.523,10.703 ZM2.346,15.459 C2.346,16.115 2.874,16.649 3.523,16.649 L21.185,16.649 C21.834,16.649 22.362,16.115 22.362,15.459 L22.362,14.270 C22.362,13.615 21.834,13.081 21.185,13.081 L3.523,13.081 C2.874,13.081 2.346,13.615 2.346,14.270 L2.346,15.459 ZM3.523,21.405 L28.249,21.405 C30.197,21.405 31.782,23.006 31.782,24.973 L31.782,26.162 C31.782,28.129 30.197,29.730 28.249,29.730 L3.523,29.730 C1.575,29.730 -0.009,28.129 -0.009,26.162 L-0.009,24.973 C-0.009,23.006 1.575,21.405 3.523,21.405 ZM2.346,26.162 C2.346,26.818 2.874,27.351 3.523,27.351 L28.249,27.351 C28.899,27.351 29.427,26.818 29.427,26.162 L29.427,24.973 C29.427,24.317 28.899,23.784 28.249,23.784 L3.523,23.784 C2.874,23.784 2.346,24.317 2.346,24.973 L2.346,26.162 Z" class="cls-1"/>
</svg>
