<svg xmlns="http://www.w3.org/2000/svg" xmlns:xlink="http://www.w3.org/1999/xlink" preserveAspectRatio="xMidYMid" width="37" height="37.06" viewBox="0 0 37 37.06">
  <defs>
    <style>
      .cls-1 {
        fill: #80407a;
        fill-rule: evenodd;
      }
    </style>
  </defs>
  <path d="M32.380,37.053 L4.616,37.053 C2.064,37.053 -0.012,34.976 -0.012,32.421 L-0.012,4.632 C-0.012,2.078 2.064,0.000 4.616,0.000 L32.380,0.000 C34.932,0.000 37.008,2.078 37.008,4.632 L37.008,32.421 C37.008,34.976 34.932,37.053 32.380,37.053 ZM34.694,4.632 C34.694,3.355 33.656,2.316 32.380,2.316 L4.616,2.316 C3.340,2.316 2.302,3.355 2.302,4.632 L2.302,32.421 C2.302,33.698 3.340,34.737 4.616,34.737 L32.380,34.737 C33.656,34.737 34.694,33.698 34.694,32.421 L34.694,4.632 ZM26.596,28.948 C25.957,28.948 25.439,28.430 25.439,27.790 L25.439,18.526 C25.439,17.886 25.957,17.369 26.596,17.369 C27.235,17.369 27.753,17.886 27.753,18.526 L27.753,27.790 C27.753,28.430 27.235,28.948 26.596,28.948 ZM18.498,28.948 C17.859,28.948 17.341,28.430 17.341,27.790 L17.341,9.263 C17.341,8.623 17.859,8.106 18.498,8.106 C19.137,8.106 19.655,8.623 19.655,9.263 L19.655,27.790 C19.655,28.430 19.137,28.948 18.498,28.948 ZM10.400,28.948 C9.761,28.948 9.243,28.430 9.243,27.790 L9.243,13.895 C9.243,13.255 9.761,12.737 10.400,12.737 C11.039,12.737 11.557,13.255 11.557,13.895 L11.557,27.790 C11.557,28.430 11.039,28.948 10.400,28.948 Z" class="cls-1"/>
</svg>
