<svg xmlns="http://www.w3.org/2000/svg" xmlns:xlink="http://www.w3.org/1999/xlink" preserveAspectRatio="xMidYMid" width="35.343" height="38.06" viewBox="0 0 35.343 38.06">
  <defs>
    <style>
      .cls-1 {
        fill: #80407a;
        fill-rule: evenodd;
      }
    </style>
  </defs>
  <path d="M34.147,8.325 C33.846,8.325 33.545,8.209 33.315,7.976 L31.713,6.359 C31.655,6.514 31.571,6.662 31.447,6.787 L30.378,7.867 C33.434,11.075 35.325,15.424 35.325,20.217 C35.325,30.053 27.402,38.054 17.663,38.054 C7.924,38.054 0.002,30.053 0.002,20.217 C0.002,10.782 7.296,3.056 16.486,2.439 L16.486,1.189 C16.486,0.532 17.012,0.000 17.663,0.000 C18.314,0.000 18.840,0.532 18.840,1.189 L18.840,2.439 C22.529,2.686 25.909,4.072 28.636,6.263 L29.782,5.105 C29.907,4.980 30.053,4.895 30.207,4.837 L28.605,3.219 C28.145,2.755 28.145,2.002 28.605,1.538 C29.065,1.073 29.810,1.073 30.270,1.538 L34.980,6.295 C35.440,6.759 35.440,7.512 34.980,7.976 C34.750,8.209 34.448,8.325 34.147,8.325 ZM17.663,4.757 C9.223,4.757 2.356,11.692 2.356,20.217 C2.356,28.741 9.223,35.676 17.663,35.676 C26.103,35.676 32.970,28.741 32.970,20.217 C32.970,11.692 26.103,4.757 17.663,4.757 ZM17.663,23.784 C15.715,23.784 14.131,22.184 14.131,20.217 C14.131,18.668 15.118,17.361 16.486,16.869 L16.486,8.325 C16.486,7.667 17.012,7.135 17.663,7.135 C18.314,7.135 18.840,7.667 18.840,8.325 L18.840,16.869 C20.208,17.361 21.195,18.668 21.195,20.217 C21.195,22.184 19.611,23.784 17.663,23.784 ZM18.840,19.027 L16.486,19.027 L16.486,21.406 L18.840,21.406 L18.840,19.027 Z" class="cls-1"/>
</svg>
